<?xml version="1.0" encoding="UTF-8" standalone="no"?>
<!-- Created with Inkscape (http://www.inkscape.org/) -->

<svg
   width="85.330063mm"
   height="106.44639mm"
   viewBox="0 0 85.330063 106.44639"
   version="1.1"
   id="svg1"
   xml:space="preserve"
   inkscape:export-filename="uninav-logo.svg"
   inkscape:export-xdpi="96"
   inkscape:export-ydpi="96"
   xmlns:inkscape="http://www.inkscape.org/namespaces/inkscape"
   xmlns:sodipodi="http://sodipodi.sourceforge.net/DTD/sodipodi-0.dtd"
   xmlns="http://www.w3.org/2000/svg"
   xmlns:svg="http://www.w3.org/2000/svg"><sodipodi:namedview
     id="namedview1"
     pagecolor="#ffffff"
     bordercolor="#000000"
     borderopacity="0.25"
     inkscape:showpageshadow="2"
     inkscape:pageopacity="0.0"
     inkscape:pagecheckerboard="0"
     inkscape:deskcolor="#d1d1d1"
     inkscape:document-units="mm" /><defs
     id="defs1" /><g
     inkscape:label="Layer 1"
     inkscape:groupmode="layer"
     id="layer1"
     transform="translate(-62.639131,-95.208051)"><g
       transform="matrix(0.03527778,0,0,-0.03527778,54.570381,209.82584)"
       fill="#000000"
       stroke="none"
       id="g10"
       style="fill:#003666;fill-opacity:1"><path
         d="M 1025,3064 C 816,2962 641,2875 636,2870 c -5,-5 4,-16 22,-27 32,-18 32,-19 32,-99 0,-62 -4,-85 -16,-95 -10,-8 -14,-23 -11,-43 2,-16 -2,-53 -9,-81 -8,-27 -14,-53 -14,-57 0,-5 29,-8 64,-8 h 64 l -14,62 c -8,35 -13,72 -10,84 3,11 -1,29 -9,40 -9,12 -14,44 -15,92 v 72 l 90,-45 c 49,-25 91,-45 94,-45 2,0 6,9 9,20 7,26 144,92 252,122 67,18 108,22 250,22 155,1 178,-1 266,-26 53,-15 135,-45 184,-67 48,-23 93,-41 100,-41 17,0 223,99 231,111 6,10 -755,390 -778,388 -7,0 -184,-84 -393,-185 z"
         id="path1"
         style="fill:#003666;fill-opacity:1" /><path
         d="m 1210,2781 c -47,-10 -116,-34 -155,-52 l -70,-34 -5,-81 -5,-81 -80,-64 C 697,2310 596,2102 596,1855 c 0,-168 49,-326 160,-519 41,-72 146,-220 163,-230 11,-7 146,21 239,50 l 87,26 -62,23 c -100,36 -172,84 -269,180 -102,101 -145,177 -185,320 -30,110 -24,273 15,392 69,212 270,404 481,459 105,27 286,25 390,-4 239,-68 427,-261 491,-502 19,-70 25,-234 12,-330 l -8,-55 71,75 71,75 -7,78 c -11,153 -43,248 -122,372 -53,82 -159,193 -225,236 l -48,31 v 79 79 l -47,23 c -61,31 -162,63 -237,76 -90,16 -259,12 -356,-8 z"
         id="path2"
         style="fill:#003666;fill-opacity:1" /><path
         d="m 2285,2637 c 129,-56 189,-109 234,-207 21,-46 25,-69 25,-145 0,-104 -15,-157 -80,-288 C 2286,1640 1891,1307 1421,1120 1116,999 750,941 552,984 c -139,29 -259,105 -319,202 -7,10 -5,1 3,-21 51,-129 169,-218 344,-261 58,-14 118,-19 269,-20 l 193,-1 77,-109 c 42,-60 128,-182 190,-272 l 113,-163 51,73 c 28,40 82,119 121,174 39,56 97,139 128,185 32,46 110,158 173,249 63,90 113,166 111,168 -2,2 -41,-15 -86,-38 -105,-53 -240,-107 -288,-116 -26,-5 0,12 88,58 336,173 549,348 725,593 110,153 174,305 197,462 19,134 -11,258 -90,360 -35,47 -134,110 -209,133 -88,27 -122,25 -58,-3 z"
         id="path3"
         style="fill:#003666;fill-opacity:1" /><path
         d="m 2186,2541 c 80,-47 157,-124 194,-192 28,-53 33,-75 38,-153 5,-78 7,-85 13,-51 13,66 10,148 -7,204 -20,69 -91,142 -177,181 -89,40 -121,47 -61,11 z"
         id="path4"
         style="fill:#003666;fill-opacity:1" /><path
         d="m 1088,2259 c -16,-9 -18,-32 -18,-254 v -245 h 35 c 85,0 208,-44 249,-89 11,-12 23,-21 28,-21 4,0 8,110 8,245 0,204 -3,251 -16,276 -19,38 -97,76 -173,84 -31,3 -65,8 -76,10 -11,2 -28,-1 -37,-6 z"
         id="path5"
         style="fill:#003666;fill-opacity:1" /><path
         d="m 1660,2260 c -94,-13 -142,-30 -177,-65 l -33,-33 v -258 -258 l 28,26 c 54,51 160,88 252,88 h 40 v 239 c 0,204 -2,242 -16,255 -8,9 -21,15 -27,15 -7,-1 -37,-5 -67,-9 z"
         id="path6"
         style="fill:#003666;fill-opacity:1" /><path
         d="m 952,2178 c -18,-18 -17,-531 1,-546 6,-5 56,-15 109,-21 151,-17 233,-53 300,-130 39,-46 73,-42 128,15 72,74 151,104 318,119 55,5 75,11 82,25 14,25 13,505 0,531 -6,10 -20,19 -30,19 -19,0 -20,-8 -20,-250 v -250 h -47 c -126,-1 -267,-52 -335,-123 l -44,-44 -38,44 c -21,24 -59,54 -85,68 -54,27 -179,55 -246,55 h -45 v 250 c 0,234 -1,250 -18,250 -10,0 -23,-5 -30,-12 z"
         id="path7"
         style="fill:#003666;fill-opacity:1" /><path
         d="m 364,1794 c -60,-108 -96,-233 -98,-339 -1,-79 3,-97 28,-153 33,-71 77,-114 152,-149 62,-28 189,-45 264,-35 l 55,8 -69,17 c -208,54 -340,174 -366,334 -13,76 4,188 44,296 18,48 32,87 30,87 -2,0 -20,-30 -40,-66 z"
         id="path8"
         style="fill:#003666;fill-opacity:1" /><path
         d="m 2536,1615 c -38,-58 -218,-244 -341,-355 -58,-51 -63,-58 -30,-39 161,91 320,252 394,397 32,63 20,61 -23,-3 z"
         id="path9"
         style="fill:#003666;fill-opacity:1" /><path
         d="m 1135,355 c -44,-7 -98,-20 -120,-29 l -40,-17 23,-19 c 41,-34 154,-52 363,-57 262,-7 437,13 490,56 l 23,18 -30,16 c -62,32 -282,56 -291,31 -2,-7 30,-15 91,-22 52,-6 105,-16 117,-23 21,-11 22,-12 5,-25 -30,-22 -120,-29 -351,-29 -211,1 -326,13 -340,35 -10,16 35,31 128,42 101,12 108,15 87,28 -19,12 -55,11 -155,-5 z"
         id="path10"
         style="fill:#003666;fill-opacity:1" /></g></g></svg>
